<?xml version="1.0" encoding="utf-8"?>
<!-- Generator: Adobe Illustrator 18.1.1, SVG Export Plug-In . SVG Version: 6.00 Build 0)  -->
<!DOCTYPE svg PUBLIC "-//W3C//DTD SVG 1.1//EN" "http://www.w3.org/Graphics/SVG/1.1/DTD/svg11.dtd">
<svg version="1.1" id="Layer_1" xmlns="http://www.w3.org/2000/svg" xmlns:xlink="http://www.w3.org/1999/xlink" x="0px" y="0px"
	 viewBox="0 0 175.5 155" enable-background="new 0 0 175.5 155" xml:space="preserve">
<g>
	<path d="M11.2,150c-5.5,0-7.8-3.9-5-8.7L82.8,8.7c2.8-4.8,7.3-4.8,10,0l76.6,132.7c2.8,4.8,0.5,8.7-5,8.7H11.2z"/>
	<path fill="none" stroke="#000000" stroke-width="10" stroke-miterlimit="10" d="M11.2,150c-5.5,0-7.8-3.9-5-8.7L82.8,8.7
		c2.8-4.8,7.3-4.8,10,0l76.6,132.7c2.8,4.8,0.5,8.7-5,8.7H11.2z"/>
</g>
<g>
	<g>
		<path fill="#F1CD42" d="M111.3,81.7c0.2,0,0.2-0.2,0-0.3c-0.2-0.1-0.3-0.2-0.3-0.2s0,0.2,0,0.3S111.2,81.8,111.3,81.7z"/>
	</g>
	<g>
		<path fill="#F1CD42" d="M55.1,57.1c0.2,0,0.2-0.1,0.2-0.3s-0.1-0.3-0.1-0.3c0,0-0.1,0.1-0.2,0.3C54.9,57,54.9,57.1,55.1,57.1z"/>
	</g>
	<g>
		<path fill="#F1CD42" d="M56.6,55.1c0.2,0.2,0.6,0.1,0.8-0.2s0.3-0.5,0.2-0.3s-0.1,0.6,0,0.7s0.1,0.2,0.1,0c-0.1-0.2,0-0.4,0.2-0.6
			s0.2-0.5,0.1-0.7s-0.1-0.6,0-0.8s0.4-0.7,0.5-1.2s0.3-0.9,0.6-0.9s0.6,0.1,0.8,0.3s0.8,0.3,1.2,0.2s1-0.2,1.1-0.2s0.5,0,0.7,0.1
			s0.4,0.2,0.4,0.2s-0.1,0.1-0.2,0.2s0.1,0,0.3,0s0.5,0,0.6,0.1c0.1,0.1,0.5,0.2,0.8,0.2s0.6,0,0.5,0.2c0,0.1-0.2,0.3-0.4,0.4
			c-0.2,0.1-0.1,0.1,0.1,0.1s0.3,0.1,0.3,0.3c0,0.2,0.1,0.4,0.3,0.6c0.2,0.1,0.2,0.3,0.1,0.4s-0.2,0.2-0.1,0.4
			c0.1,0.2,0.7,0.9,1.5,1.6s1.4,1.3,1.5,1.4c0.1,0.1,0.2,0.4,0.4,0.8c0.2,0.3,0.6,1.1,1,1.8c0.4,0.6,0.7,0.9,0.7,0.7
			s0.3-0.5,0.6-0.6s0.5,0,0.5,0.2c-0.1,0.2,0,0.4,0.2,0.4c0.2,0,0.7,0,1.1-0.1s1-0.2,1.2-0.3s0.3,0,0.2,0s-0.4,0.3-0.7,0.5
			c-0.3,0.2,0,0.3,0.5,0.2s1-0.2,1.1-0.2s0.2-0.2,0.2-0.4s0-0.2,0.1,0.1c0.1,0.3,0.2,0.7,0.2,1.1c0.1,0.3,0.3,0.4,0.5,0.2
			s0.5-0.5,0.5-0.5c0.1-0.1,0.1-0.1,0,0c0,0.1-0.1,0.3-0.2,0.6s0.2,0.4,0.6,0.4s1,0.1,1.2,0.3s0.7,0.6,1.1,0.9
			c0.4,0.3,0.9,0.6,1.3,0.7s0.7,0.3,0.8,0.6s0,0.4-0.2,0.5s-0.4,0.2-0.5,0.4c0,0.2,0.4,0.4,0.9,0.6s1.2,0.2,1.6,0.1s0.8,0.1,1.1,0.4
			s0.5,0.7,0.4,0.8s0,0.4,0.2,0.7s0.3,0.4,0.2,0.1s-0.1-0.4,0.1-0.4s0.2,0,0.3-0.1c0-0.1-0.1-0.4-0.2-0.7s0.1-0.8,0.5-1.1
			s0.5-0.4,0.2-0.3s-0.7,0.2-0.9,0.2s0-0.3,0.5-0.6c0.5-0.2,1-0.1,1.2,0.2c0.2,0.3,0.5,0.6,0.8,0.6c0.3,0,0.6,0.2,0.8,0.4
			s0.7,0.4,1,0.4c0.4,0,0.8,0,1,0s0.4-0.2,0.4-0.4s0.2-0.1,0.5,0.2s0.4,0.3,0.4,0.1s-0.1-0.3-0.3-0.3s-0.3-0.1-0.4-0.3
			s0-0.4,0.3-0.5s0.5,0,0.7,0c0.1,0.1,0.2,0.2,0.2,0.4c0,0.1,0,0.1,0.2,0s0.1,0.1,0.1,0.4s0,0.7,0.3,0.8s0.4-0.1,0.3-0.5
			c-0.1-0.4,0.1-0.9,0.4-1.1c0.3-0.2,0.5-0.6,0.4-0.7c-0.1-0.2-0.2-0.2-0.3-0.1s-0.2,0-0.2-0.2c0-0.2,0.2-0.4,0.3-0.5
			s-0.1-0.2-0.6-0.4s-0.8-0.4-0.8-0.4s0-0.3,0-0.6s0-0.5-0.2-0.6s0-0.5,0.3-0.9c0.3-0.5,0.9-0.3,1.4,0.4s0.8,1.2,0.7,1.2
			c-0.1,0-0.3,0-0.3,0.2s0,0.3-0.1,0.4s0.3,0.3,0.7,0.3s0.6,0.1,0.4,0.2c-0.2,0.1-0.1,0.5,0.2,0.9c0.3,0.5,0.6,0.5,0.6,0
			c0.1-0.5,0.3-0.7,0.5-0.6s0.6,0.8,0.9,1.5c0.3,0.7,0.6,1.2,0.8,1.1c0.1-0.1,0.3-0.7,0.3-1.3s0.1-1.1,0.3-1.1s0-0.4-0.2-0.8
			c-0.3-0.4-0.1-0.8,0.4-0.8c0.5,0,0.8,0,0.7,0.1s0.1,0.2,0.4,0.3s0.5,0.2,0.5,0.4c-0.1,0.1,0,0.3,0.2,0.4c0.1,0.1,0.1,0.3-0.1,0.4
			c-0.2,0.1,0,0.5,0.3,0.8s0.4,1,0.2,1.6s-0.5,0.8-0.7,0.6c-0.1-0.2-0.4-0.3-0.7-0.3s-0.1,0.3,0.2,0.6s0.2,0.5-0.4,0.4
			c-0.6-0.1-0.9,0-0.7,0.1s0.2,0.6,0,0.9s-0.8,0.5-1.2,0.3c-0.5-0.2-1-0.3-1.2-0.3s0.3,0.3,1.1,0.5c0.8,0.2,1.3,0.8,1.2,1.2
			s-0.6,0.8-0.9,0.9c-0.4,0.1-0.7,0.4-0.8,0.7s-0.7,0.3-1.4,0s-1.2-0.4-1.2-0.3s0.3,0.3,0.6,0.3s0.6,0.1,0.6,0.3s0,0.1,0.2,0
			s0.4,0,0.7,0.2c0.3,0.2,0.4,0.5,0.3,0.7S96.6,74,96.3,74S96,74,96.2,74.1c0.1,0.1,0,0.4-0.4,0.7s-0.6,0.6-0.5,0.7
			c0.1,0.1-0.1,0.6-0.4,1.1c-0.3,0.5-0.5,1.5-0.5,2.1s0.2,1.4,0.4,1.6s0.3,0.3,0.3,0.2s0.2-0.3,0.4-0.3s0.6,0.5,0.9,1
			c0.3,0.6,0.4,1.2,0.3,1.4s0.2,0.2,0.7,0c0.5-0.2,2.1,0.2,3.6,0.9c1.5,0.7,3.3,1.2,4.1,1.1c0.7-0.1,1.5,0.6,1.8,1.5
			c0.3,0.9,1,2.1,1.6,2.5c0.6,0.4,1.1,0.9,1.1,1.1c0,0.2,0.2,0.4,0.4,0.4c0.2,0,0.4,0,0.4,0c0.1,0,0.1-0.2,0.2-0.5
			c0.1-0.3,0.3-0.3,0.5-0.2s0.2,0.1,0.1-0.1c-0.1-0.2-0.2-0.6,0-0.9s-0.1-1.1-0.5-1.9c-0.4-0.8-0.9-1.5-1.2-1.7
			c-0.3-0.1-0.1-0.6,0.3-1s0.9-1.2,1-1.8s-0.1-1.5-0.5-2.1c-0.4-0.6-1-1.3-1.5-1.5s-0.7-0.9-0.6-1.5s0-1.5-0.2-1.8
			c-0.2-0.3-0.4-0.5-0.6-0.5c-0.1,0.1-0.2-0.2-0.2-0.5c0-0.3-0.1-0.8-0.4-1.1c-0.2-0.3-0.3-0.6-0.3-0.8s0.7-0.3,1.3-0.3
			s1.2-0.1,1.3-0.3s0.5-0.2,0.9,0.1s0.9,0.4,1,0.4c0.1-0.1,0.3,0,0.4,0.2c0.1,0.2,0.4,0.3,0.8,0.4s0.8-0.1,0.8-0.2s0.2,0.1,0.4,0.5
			c0.2,0.4,0.1,0.8-0.1,0.9s-0.2,0.2,0,0.1s0.5,0.1,0.6,0.4s0.3,0.4,0.4,0.4s0.2,0.1,0.3,0.3s0,0.4-0.2,0.3s-0.2,0-0.3,0.2
			s0.3,0.1,0.7-0.1s0.8,0,0.9,0.3s0.2,0.4,0.2,0.1c0-0.3,0.2-0.4,0.4-0.2c0.2,0.2,0.4,0,0.5-0.5s0.3-0.7,0.5-0.5s0.2,0.2,0.1,0
			c-0.1-0.2-0.2-0.5-0.1-0.7s0.1-0.3-0.1-0.4s-0.1-0.1,0-0.3s0.1-0.3-0.1-0.4c-0.2-0.1-0.3-0.4-0.4-0.7s0-0.5,0.2-0.5
			s0.2,0.1,0.2,0.2s0.4,0.4,0.8,0.6s0.7,0.5,0.6,0.6c-0.1,0.1,0,0.1,0.2,0c0.2-0.1,0.4-0.1,0.5,0.1s0.2,0.4,0.2,0.6
			c0,0.2,0.1,0.3,0.2,0.1c0.1-0.2,0.2-0.1,0.2,0.2s0,0.3,0.2,0.2s0.2-0.2,0.3-0.1s0.2,0.3,0.4,0.3s0.3,0.2,0.2,0.3s0.1,0.2,0.4,0.3
			s0.6,0.2,0.7,0.4c0.1,0.2-0.1,0.4-0.3,0.5s-0.2,0.1,0.1,0.1s0.3,0,0.3,0.1s0,0.2,0.1,0.2s0.2,0.1,0.2,0.2c-0.1,0.1,0,0.1,0.2,0
			c0.1-0.1,0.2,0,0.2,0.1c0,0.1,0.2,0.2,0.4,0.2c0.3-0.1,0.5,0,0.6,0.1c0.1,0.1,0.1,0.1,0.1-0.1s0.1,0,0.2,0.4s0.3,0.5,0.4,0.3
			s0.2-0.4,0.2-0.4c0-0.1,0.1,0,0.1,0.1s0.1,0.1,0.2,0.1s0.2-0.2,0.2-0.3s0,0,0.1,0.1c0,0.1,0.1,0.1,0.1,0s0.1-0.1,0.2,0
			s0.3,0.1,0.5-0.1c0.2-0.1,0.3-0.2,0.3-0.1s0.2,0.1,0.4,0.1s0.1,0.3-0.2,0.8c-0.3,0.5-0.4,0.7-0.2,0.5c0.2-0.2,0.2,0,0,0.4
			s-0.1,0.4,0.1-0.1c0.2-0.5,0.6-0.9,0.8-0.9c0.3,0,0.5,0.1,0.6,0.4s0.2,0.2,0.3-0.1s0.4-0.4,0.6-0.3s0.5,0.4,0.5,0.6
			s0.2,0.5,0.3,0.5s0.1,0.1,0,0.2s-0.1,0.1,0.2,0s0.3,0,0.2,0s-0.1,0.2,0.1,0.3s0.3,0.5,0.2,0.9s-0.4,1-0.7,1.3s-0.6,1-0.6,1.5
			s-0.1,1-0.1,1s-1.3,0.6-2.8,1.4s-2.7,1.5-2.8,1.7s-0.1,0.5-0.1,0.9c0,0.3-0.4,1.2-0.9,1.9s-0.8,1.5-0.7,1.7s0,0.8-0.2,1.4
			c-0.2,0.5,0.1,0.1,0.6-1c0.5-1.1,1.2-2.4,1.6-2.8c0.4-0.5,1-1,1.4-1.1s0.9,0,1.1,0.2s0.2,0.7,0.1,0.9c-0.1,0.3-0.6,0.6-0.9,0.8
			c-0.4,0.2-0.5,0.3-0.2,0.2c0.3-0.1,0.5-0.1,0.6,0.1s0.3,0.1,0.5-0.1c0.2-0.2,0.3,0,0.3,0.4s0.1,0.6,0.3,0.5s0.4,0.1,0.6,0.4
			s0.7,0.6,1.2,0.7s1.1-0.1,1.5-0.3c0.3-0.3,0.7-0.4,0.9-0.4s0.2,0,0.1-0.2s-0.2-0.7-0.1-1.3s0.3-0.8,0.4-0.5s0.2,0.8,0.2,1.1
			s0,0.6,0,0.5s0.2-0.4,0.2-0.7s0.1-0.6,0.2-0.5c0.1,0,0.3,0.1,0.3,0.1s0.1,0.1,0,0.2s-0.2,0.4-0.5,0.7s-0.3,0.6-0.2,0.7
			s0.2,0.2,0.1,0.3c-0.1,0.1-0.6,0.6-1,1.1s-0.8,1-0.8,1.1s-0.1,0.2-0.3,0.3s-0.5,0.6-0.6,1.2s-0.4,1.1-0.6,1s-0.5-0.4-0.6-0.7
			s0-1,0.3-1.6c0.3-0.5,0.4-0.9,0.3-0.9s-0.2-0.1-0.1-0.4s-0.2,0-0.6,0.6s-0.9,1.1-1.1,1.1s-0.3,0.1-0.2,0.3
			c0.1,0.1,0.1,0.5-0.1,0.9s-0.5,0.6-0.6,0.5s-0.3,0-0.4,0.2s-0.3,0.2-0.3,0.1c-0.1-0.2-0.1,0-0.1,0.4s-0.1,0.7-0.3,0.7
			s-0.3,0.1-0.3,0.3c0.1,0.1,0,0.3-0.1,0.4s-0.2,0.6-0.3,1.3s0.2,1.4,0.5,1.6s0.6,0.2,0.6,0s0.1-0.2,0.2-0.1s-0.1,0.4-0.5,0.7
			s-0.7,0.3-0.8,0.2s-0.2-0.1-0.1,0.2c0.1,0.2-0.4,0.7-1,1c-0.6,0.3-1.2,0.9-1.4,1.2c-0.1,0.3-0.1,0.8,0,1.1c0.1,0.3,0.1,0.9,0,1.3
			c-0.1,0.4-0.5,0.6-0.8,0.3s-0.3,0,0,0.5s0.4,1.5,0.3,2.1c-0.1,0.7-0.2,0.9-0.2,0.5c0-0.4-0.2-1-0.6-1.3c-0.3-0.3-0.6-0.9-0.5-1.2
			s0-0.5-0.3-0.3s-0.2,0.8,0.1,1.2c0.3,0.5,0.2,0.7-0.2,0.6c-0.4-0.2-0.7-0.2-0.7,0s0.3,0.3,0.7,0.4c0.4,0.1,0.7,0.3,0.7,0.4
			s0,0.2,0,0.3s0,0.2,0,0.3s-0.2,0.2-0.3,0.1c-0.1-0.1-0.1-0.1,0,0.1c0.2,0.2,0.1,0.3-0.1,0.3s-0.1,0,0.3,0.1
			c0.4,0.1,0.9,0.5,1.1,0.9c0.3,0.4,0.3,0.5,0,0.2s-0.3-0.4-0.2-0.2s0.1,0.4,0,0.4s-0.4,0.1-0.5,0.3c-0.1,0.2-0.1,0.3,0.2,0.2
			s0.4,0,0.5,0.1s0.1,0.1,0.1,0s0.1-0.2,0.2,0s0.1,0.4-0.1,0.6s-0.5,0.3-0.8,0.4s-0.4,0.1-0.2,0.1s0.2,0.2,0.1,0.4
			c-0.1,0.2-0.1,0.3,0.2,0.3s-0.2,0.6-0.9,1.3s-1.6,1.8-1.9,2.3s-0.8,1.2-0.9,1.5s-0.4,0.4-0.5,0.3s-0.1-0.1-0.1,0
			c0.1,0.1-0.1,0.6-0.3,1.1c-0.3,0.5-0.3,1.3,0,1.8c0.3,0.5,1,1.9,1.6,3.2s1.1,3,1,3.8s-0.2,1.4-0.2,1.3s-0.2-0.1-0.4,0
			s-0.4,0-0.4-0.2s-0.2-0.4-0.5-0.5c-0.3-0.1-0.7-0.5-0.8-0.9c-0.2-0.4-0.4-0.7-0.6-0.7c-0.1,0.1-0.4-0.1-0.5-0.3
			c-0.1-0.2-0.2-0.6-0.2-0.8c0.1-0.2,0-0.4-0.2-0.3s-0.3-0.2-0.3-0.7s-0.4-1.1-0.8-1.5c-0.5-0.4-0.9-0.7-0.9-0.7
			c-0.1,0-0.2-0.1-0.4-0.1s-0.4,0-0.5,0.1s-0.4,0.3-0.7,0.5s-0.6,0.2-0.7,0.1s-0.2-0.4-0.3-0.5c-0.1-0.1-0.4-0.2-0.7-0.2
			s-0.5,0-0.4-0.1s-0.1,0-0.5,0.1c-0.4,0.1-0.6,0.1-0.6,0c0.1-0.1-0.2,0-0.6,0.2c-0.4,0.2-0.6,0.3-0.5,0.3s0.1-0.3,0-0.5
			s-0.2-0.1-0.2,0.1s-0.8,0.5-1.6,0.7s-1.3,0.4-1,0.4c0.3,0.1,0.7,0.1,0.8,0.2c0.2,0,0.2,0.2,0,0.4c-0.2,0.2-0.1,0.4,0.2,0.5
			s0.4,0.3,0.3,0.5c-0.1,0.1-0.4,0.1-0.6-0.2c-0.2-0.2-0.5-0.4-0.6-0.5s-0.3,0.1-0.2,0.3c0.1,0.2,0,0.3-0.2,0.2s-0.4,0-0.5,0.1
			c-0.1,0.1-0.6,0-1-0.3s-0.9-0.4-1-0.3c-0.2,0.1-0.8,0.2-1.4,0.2c-0.6,0-1.4,0.1-1.8,0.3c-0.4,0.2-0.6,0.2-0.5,0.2s0-0.2-0.2-0.3
			s-0.4,0.1-0.4,0.4c0,0.3-0.4,0.7-0.8,1s-0.7,0.4-0.6,0.4s-0.1-0.1-0.3-0.2c-0.3,0-0.4,0-0.3,0.2s-0.1,0.3-0.4,0.5
			s-0.6,0.6-0.7,0.9s-0.3,0.7-0.4,0.7s-0.1,0,0,0s0.4,0.5,0.5,1s0.1,1.3-0.1,1.7s-0.2,0.6-0.2,0.4c0.1-0.2,0-0.2-0.2-0.2
			c-0.2,0.1-0.3,0.4-0.4,0.7s0,1.2,0,2s0.1,1.6,0.1,1.9c0,0.2,0.8,1.5,1.6,2.9s1.8,2.4,2.1,2.4s0.8,0.2,1.1,0.4s1.3,0.2,2.2-0.1
			s1.9-0.5,2.2-0.5s0.9-0.2,1.2-0.7s0.7-1.3,0.9-2c0.1-0.7,1-1.6,1.8-1.9s2-0.7,2.6-0.6c0.6,0,0.8,0.7,0.4,1.4s-0.5,1.4-0.4,1.4
			c0.1,0,0.1,0.5,0,1.1c-0.1,0.6-0.4,0.9-0.5,0.6s-0.3-0.3-0.4-0.1s-0.1,0.4,0,0.4s0.2,0.5,0.2,1s-0.2,1.4-0.5,1.9
			c-0.3,0.5-0.2,0.9,0.1,0.9s1.7-0.2,3-0.6c1.3-0.3,3-0.5,3.6-0.3c0.7,0.2,1.3,0.6,1.5,0.9s0.1,1,0.1,1.5s4.4,0.9,9.9,0.9h38.1
			c5.5,0,7.8-3.9,5-8.7l-27.2-47.2c-2.8-4.8-5-8.5-4.9-8.4s0,0.3-0.1,0.4s-0.3-0.1-0.4-0.3s-0.2-0.2-0.3,0.1s-0.1,0.2-0.2,0
			s-0.3-0.6-0.4-0.7s-0.3,0.2-0.3,0.7s-0.2,1-0.4,1.1s-0.2-0.1-0.1-0.6s0-0.6-0.3-0.3s-0.5,0.3-0.6,0s-0.2-0.2-0.3,0.1
			s-0.5,0.7-0.9,0.8s-0.8,0.4-1,0.6s-0.4,0.3-0.5,0.2s-0.1-0.5,0-0.9s0-0.6-0.2-0.4s-0.4,0-0.3-0.4s0.2-0.7,0.4-0.7s0.1-0.1-0.1-0.2
			s-0.2-0.3-0.1-0.4s0.1-0.3,0-0.6s-0.3-0.6-0.4-0.9s-0.1-1-0.1-1.6s0.3-1,0.4-0.9s0.2,0.1,0.1,0.2s-0.1,0.1,0.1,0.2
			s0.3,0.6,0.4,1.1s0.2,1.2,0.2,1.4s0,0.2,0-0.1s0-0.5,0-0.6s0-0.1,0.1-0.1s0.1,0.1,0.1,0.2s0.2,0,0.3-0.2s0.3,0,0.3,0.3
			s0.1,0.4,0.3,0.2s0.4-0.1,0.4,0.1s0.2,0.1,0.2-0.2s0.2-0.5,0.3-0.4s0.3,0.1,0.5-0.1s0.4,0.1,0.5,0.5s0.3,0.6,0.5,0.4
			s0.3-0.2,0.2,0.1c-0.1,0.3-0.1,0.5,0,0.5c0.1,0,0.2,0.1,0.2,0.3s0.1,0.3,0.2,0.3s0.3-0.2,0.3-0.5s0-0.3,0.1-0.1s0.1,0.4,0.2,0.3
			c0-0.1-2.2-4.2-4.9-8.9l-1.3-2.2c-2.8-4.8-5-8.7-5-8.7s0,0,0,0s0-0.1,0-0.1s-0.1,0-0.2,0c-0.1,0.1-0.1,0,0-0.1
			c0-0.1,0.1-0.2,0.1-0.2s-0.1,0-0.1,0c-0.1,0-0.2-0.1-0.2-0.2c-0.1-0.1-0.1-0.1-0.2,0s0,0.1,0-0.1s-0.1-0.2-0.2,0s-0.2,0.1-0.2,0
			c0-0.1-0.2-0.2-0.4-0.2s-0.4-0.1-0.5-0.4s-0.2-0.3-0.2-0.2s-0.1,0.2-0.2,0s-0.3-0.3-0.5-0.2c-0.2,0.1-0.2,0.1-0.1-0.1
			s0.1-0.1,0-0.1c-0.1,0.1-0.2,0-0.2-0.1s-0.1-0.2-0.2-0.1c-0.1,0.1-0.3,0.1-0.3-0.1s-0.1-0.3-0.2-0.2s-0.1-0.1,0.1-0.3
			c0.1-0.2,0.1-0.2-0.1-0.1s-0.3,0.1-0.2-0.2s0.1-0.4-0.1-0.4c-0.1,0-0.1,0,0.2-0.1s0.1-0.2-0.4-0.4s-0.6-0.2-0.5,0
			c0.2,0.1,0.3,0.5,0.3,0.8s-0.1,0.5-0.3,0.3c-0.2-0.1-0.3-0.4-0.3-0.6s0-0.2-0.1,0c-0.1,0.1-0.2,0.1-0.4-0.1
			c-0.1-0.2-0.3-0.3-0.4-0.3c-0.1,0.1,0-0.2,0.2-0.5c0.1-0.3,0.1-0.6,0-0.5c-0.1,0-0.3,0.3-0.3,0.5s-0.2,0.4-0.4,0.4
			s-0.3-0.3-0.2-0.5s0-0.3-0.2-0.1s-0.2-0.1-0.1-0.7c0.1-0.5,0.2-1,0.1-0.9s-0.2,0.3-0.3,0.5s-0.1,0.7-0.1,0.9
			c0,0.3-0.1,0.4-0.1,0.2s-0.1-0.3-0.2-0.3s-0.1-0.1,0.1-0.2c0.1-0.1,0.1-0.2-0.1-0.1c-0.2,0.1-0.2,0-0.2-0.2s-0.1-0.3-0.4-0.2
			s-0.3-0.1-0.1-0.4s0.2-0.4-0.1-0.2s-0.3,0-0.1-0.5c0.3-0.5,0.3-0.7,0.1-0.5s-0.4,0.2-0.4,0.2s-0.1,0.1-0.2,0.4
			c-0.1,0.3-0.3,0.4-0.4,0.2s-0.1-0.4,0.1-0.5c0.2-0.1,0.1-0.1-0.1-0.1s-0.1-0.1,0.4-0.3s0.6-0.3,0.4-0.3s-0.4-0.1-0.4-0.3
			c0-0.2-0.3-0.1-0.5,0.2c-0.3,0.3-0.4,0.4-0.4,0.2c0.1-0.2,0.3-0.4,0.5-0.5s0.2-0.3-0.1-0.5s-0.3-0.3-0.2-0.3c0.1,0,0.2,0,0.2-0.2
			c-0.1-0.1-0.2-0.1-0.3,0s-0.3-0.1-0.5-0.4c-0.2-0.3-0.3-0.6-0.4-0.6c0,0-0.2,0.1-0.4,0.3s-0.7,0.3-1.1,0.3s-0.7-0.1-0.5-0.3
			s0.6-0.4,0.9-0.4c0.4-0.1,0.4-0.2,0.1-0.3s-0.6-0.2-0.5-0.3s0-0.1-0.1,0s-0.3,0-0.3-0.1s0-0.1-0.1,0c-0.1,0.1-0.1,0-0.1-0.2
			s-0.1-0.2-0.2-0.1s-0.2,0.1-0.2-0.1s-0.1-0.2-0.2-0.1c-0.1,0.1-0.4,0.1-0.7-0.1s-0.2-0.1,0,0.2s0.2,0.6-0.1,0.6
			c-0.3,0.1-0.5,0-0.5-0.2c0-0.1-0.1-0.4-0.2-0.5s-0.2-0.2-0.3-0.2s-0.1,0,0-0.1s-0.1-0.2-0.4-0.3s-0.9-0.4-1.3-0.8
			c-0.4-0.3-0.8-0.5-0.8-0.4c-0.1,0.1-0.1,0-0.2-0.2c0-0.2-0.6-0.5-1.4-0.7s-1.4-0.4-1.6-0.5c-0.1-0.1-0.5-0.1-0.8,0
			c-0.3,0.1-0.6,0.3-0.7,0.5s-0.3,0.4-0.5,0.4s-0.2,0.1-0.1,0.2s0.1,0.2-0.2,0.2s-0.6,0-0.7-0.1c-0.2-0.1-0.2-0.3-0.2-0.4
			c0.1-0.1-0.1-0.3-0.5-0.3s-0.3-0.2,0.1-0.4c0.4-0.2,0.5-0.3,0.3-0.3c-0.3,0.1-0.3,0,0-0.1c0.3-0.1,0.4-0.3,0.3-0.4
			s-0.3-0.1-0.6,0.1s-0.8,0.2-1.3,0.1s-0.7-0.6-0.6-1s0.4-0.9,0.6-1s0.3-0.5,0.2-0.9s-0.3-0.6-0.5-0.5s-0.4,0.1-0.5,0.1
			s-0.2-0.4-0.2-0.7s0.2-0.5,0.3-0.5s0.1,0,0-0.1s-0.1-0.2,0-0.2s0.1-0.2-0.2-0.4s-0.3-0.5-0.3-0.5s0.4-0.1,0.7,0s0.3,0,0,0
			s-0.6-0.2-0.6-0.2c0,0,0.1-0.2,0.2-0.4s0.4-0.2,0.7-0.1c0.2,0.2,0.4,0.2,0.3,0c-0.1-0.1,0.1-0.3,0.4-0.3c0.3,0,0.2-0.2-0.2-0.4
			c-0.4-0.2-0.3-0.4,0.3-0.4s0.8-0.1,0.7-0.2s-0.5-0.1-0.8-0.2s-0.4-0.1-0.3-0.2c0.1-0.1,0.4-0.1,0.5,0s0.3,0,0.4-0.1
			s-0.1-0.2-0.4-0.2s-0.3-0.1,0.1-0.2s0.5-0.3,0.4-0.3c-0.1-0.1-0.4,0-0.7,0.1s-0.5,0.1-0.6,0s0.1-0.3,0.4-0.3s0.6-0.1,0.6-0.1
			c0,0-0.2-0.1-0.5-0.3s-0.3-0.6,0.1-1s0.5-0.4,0.4-0.2c-0.1,0.3,0,0.7,0.1,0.8s0.3-0.1,0.3-0.5s0.2-0.8,0.3-0.7
			c0.1,0.1,0.4,0,0.5-0.2c0.1-0.2,0.4-0.2,0.5,0c0.1,0.2,0.1,0.6,0,0.9c-0.1,0.3-0.2,0.6-0.1,0.7s0.3-0.1,0.4-0.5s0.4-0.6,0.6-0.4
			s0.2,0,0-0.3s0.2-0.3,0.8,0s0.8,0.3,0.4-0.1c-0.4-0.3-0.7-0.6-0.6-0.6c0.1,0,0.2-0.1,0.2-0.2c0.1-0.1-0.1-0.3-0.3-0.4
			s-0.3-0.3-0.2-0.5s0.5-0.1,0.9,0c0.4,0.1,0.7,0.5,0.8,0.8c0.1,0.3,0.1,0.6,0.2,0.6s0.1,0.1,0.1,0s0-0.3,0.1-0.5
			c0.1-0.2,0.2-0.2,0.3,0.1s0.2,0.5,0.3,0.5c0,0,0.2,0.1,0.3,0.1s0.3,0,0.3,0s0-0.2-0.1-0.3c-0.1-0.1,0.2-0.1,0.7,0.2s1,0.6,1.4,0.8
			s0.7,0.5,0.9,0.5s0.2,0,0.1-0.1c-0.1-0.1-0.2-0.2-0.1-0.3s0.2-0.1,0.3-0.1s0.2,0,0.2,0.1s0.1,0.2,0.1,0.3c0,0.1,0.1,0.1,0.1,0
			s0.1-0.2,0.2-0.3s0.3-0.2,0.6-0.1s-1.9-3.8-4.6-8.6L92.8,8.7c-2.8-4.8-7.3-4.8-10,0L61.2,46C58.5,50.7,56.4,54.8,56.6,55.1z
			 M108.4,82.3c0.1-0.3,0.2-0.4,0.3-0.2s0.2,0.5,0.2,0.6s0,0.1,0,0c0-0.1-0.2-0.1-0.3,0.1S108.4,82.7,108.4,82.3z M108,87.7
			c0.2-0.1,0.5-0.1,0.7,0.1c0.2,0.2,0,0.3-0.4,0.3C108,88,107.8,87.8,108,87.7z M126.8,87.2c-0.7,0-1-0.2-0.5-0.3s1.1-0.2,1.4-0.2
			s0.5,0.2,0.5,0.3S127.5,87.2,126.8,87.2z M129.8,91.5c-0.1,0.3-0.7,0.5-1.1,0.5s-0.9-0.3-0.9-0.5s0.1-0.2,0.3,0
			c0.1,0.2,0.7,0.2,1.1-0.1S130,91.2,129.8,91.5z M147.6,142.4c-0.1-0.1,0-0.3,0.3-0.5s0.5-0.2,0.5,0.1s-0.2,0.7-0.6,0.9
			s-0.5,0.3-0.3,0.1S147.7,142.5,147.6,142.4z M146.1,134.5c0.1-0.1,0.3-0.2,0.4-0.2s0.1,0.2-0.1,0.4s-0.3,0.3-0.4,0.2
			S146,134.6,146.1,134.5z M139.5,134.7c0.6-0.3,1-0.3,0.9-0.1s-0.5,0.6-0.9,0.8s-0.8,0.3-0.9,0.1S138.9,135,139.5,134.7z
			 M129.5,134.4c0.2-0.2,0.4-0.3,0.4-0.1s-0.2,0.4-0.4,0.4S129.2,134.6,129.5,134.4z M124.2,129.6c0.3,0.1,0.5,0.4,0.5,0.6
			c0,0.2,0,0.2,0,0.1c0-0.1-0.3-0.4-0.5-0.6C123.9,129.5,123.9,129.5,124.2,129.6z M122.6,127.8c0.2,0.1,0.4,0.4,0.4,0.7
			s-0.1,0.6-0.2,0.5s-0.1-0.3,0-0.5C122.9,128.3,122.7,128,122.6,127.8C122.3,127.7,122.4,127.7,122.6,127.8z M122.8,132.1
			c0.1,0,0.2,0,0.2,0.2s-0.1,0.1-0.2,0.1s-0.2-0.2-0.2-0.2s0-0.1,0.1-0.2c0.1-0.1,0.1-0.1,0.1,0.1
			C122.6,132,122.7,132.1,122.8,132.1z M121.6,131c0.1-0.3,0.3-0.3,0.5-0.2s0.3,0.4,0.3,0.6c-0.1,0.2-0.3,0.3-0.5,0.2
			S121.6,131.3,121.6,131z M116.1,137.6c-0.2,0.1-0.3,0.1-0.3,0.2s0-0.1-0.1-0.3c0-0.2,0-0.4,0.2-0.4s0.3,0.1,0.4,0.2
			S116.3,137.6,116.1,137.6z M125.8,140.7c-0.3,0.1-0.8,0.3-1.1,0.4c-0.3,0.1-0.8,0.1-1,0s-0.1-0.4,0.5-0.6c0.6-0.2,1.3-0.3,1.6-0.2
			S126.1,140.5,125.8,140.7z M125.7,137.6c-1.1,0.3-1.8,0.4-1.6,0.2s0.3-0.6,0.3-0.7c-0.1-0.1-0.4-0.2-0.8-0.1
			c-0.4,0.1-0.9-0.1-1.2-0.4s-0.9-0.5-1.4-0.5c-0.5,0-1.5,0.1-2.2,0.2s-1.5,0.1-1.6,0c-0.1-0.1-0.1-0.2,0.1-0.3s0.3-0.2,0.2-0.3
			s-0.5-0.1-0.8,0s-1,0.5-1.5,0.9c-0.5,0.4-1.1,0.8-1.5,0.9c-0.4,0.1-0.5,0.1-0.2-0.1c0.3-0.1,0.5-0.5,0.6-0.8
			c0.1-0.3,1-0.9,2.1-1.4c1.1-0.4,2.4-0.8,2.9-0.8c0.5,0,0.9,0,1,0s1.2,0.3,2.4,0.6c1.2,0.4,2.6,0.6,3.1,0.5c0.5-0.1,0.9,0,0.9,0.2
			s0.6,0.3,1.2,0.3c0.6,0,0.9,0.1,0.6,0.4S126.7,137.3,125.7,137.6z M132.5,135.5c1.1-0.3,2.1-0.4,2.2-0.3s0.4,0.1,0.6,0.1
			c0.2-0.1,0.3,0,0.1,0.1s0.1,0.3,0.6,0.3s0.9,0.2,0.8,0.4s-0.8,0.5-1.6,0.7s-1.5,0.6-1.7,0.8s-0.3,0.6-0.4,0.8s-0.4,0.2-0.6,0
			s-1,0-1.7,0.3s-1.5,0.6-1.7,0.5s-0.4-0.3-0.3-0.4s0.7-0.4,1.5-0.6s1.1-0.5,0.9-0.6s-0.4-0.4-0.4-0.6s-0.2-0.4-0.5-0.4
			s-0.4-0.1-0.2-0.3S131.4,135.7,132.5,135.5z M115.8,70.5c0.1-0.1,0.3,0,0.3,0.1s-0.1,0.2-0.3,0.2
			C115.6,70.7,115.6,70.6,115.8,70.5z M89.8,63.2c0,0.1,0,0.2,0,0.4s-0.1,0.2-0.2,0.1s-0.3-0.1-0.5,0.1c-0.2,0.2-0.4,0.2-0.6,0.2
			c-0.1-0.1-0.2,0.1-0.2,0.3c0,0.3,0.2,0.3,0.3,0.2c0.1-0.2,0.3-0.2,0.4,0s-0.3,0.4-0.8,0.4s-1.2-0.2-1.4-0.4s-0.7-0.2-1.2,0.1
			s-1.3,0.5-2,0.5c-0.7,0-1.3-0.2-1.3-0.4S82,64,81.6,63.8s-0.8-0.6-0.8-0.9c-0.1-0.3-0.1-0.5-0.1-0.5s0.7,0,1.7,0
			c0.9,0,1.4-0.1,1.1-0.3s-1-0.4-1.6-0.5c-0.6-0.1-1.1-0.3-1.1-0.5s0.4-0.4,0.9-0.5s0.6-0.2,0.1-0.2c-0.5,0-0.7-0.1-0.6-0.2
			s0.1-0.2-0.1-0.3c-0.2-0.1-0.2-0.4,0-0.6c0.2-0.3,0.8-0.7,1.5-0.9s1.1-0.2,0.9,0.2s0,0.5,0.3,0.3c0.3-0.1,0.7-0.1,0.8,0
			c0.2,0.1,0.2,0.4,0.1,0.5s-0.1,0.3,0,0.3s0.3,0,0.4-0.2c0.1-0.1,0.2-0.1,0.3-0.1s0.1,0,0.1-0.3s-0.1-0.4,0.1-0.4s0.4,0.5,0.6,1
			s0.4,0.5,0.4-0.1c0-0.6,0.2-1.2,0.4-1.2s0.5,0.1,0.7,0.3c0.2,0.2,0.3,0.9,0.4,1.7s0.5,1.6,1,2S89.8,63.2,89.8,63.2z M90.5,61.2
			c-0.1-0.1-0.5-0.5-0.9-0.9c-0.4-0.4-0.6-0.9-0.5-1s0.4-0.2,0.6-0.1c0.3,0.1,0.5,0.2,0.5,0.1c0-0.1,0.1-0.2,0.1-0.3s0-0.2,0-0.2
			s-0.2-0.1-0.4-0.2s-0.2-0.1-0.1-0.1c0.1,0,0.2-0.1,0.2-0.3c-0.1-0.2,0-0.3,0.1-0.3s0.5,0,0.9,0.1c0.4,0,0.5,0.3,0.4,0.6
			c-0.2,0.3-0.1,0.6,0.2,0.7s0.4,0.5,0.4,0.9s-0.2,0.8-0.4,0.8c-0.2,0-0.3,0.1-0.3,0.2s-0.1,0.2-0.3,0.2
			C90.8,61.3,90.6,61.3,90.5,61.2z M92.3,64.3c0.5,0.4,0.7,0.9,0.5,1s-0.7,0.2-1.1,0s-0.6-0.6-0.5-1C91.3,63.9,91.8,63.9,92.3,64.3z
			 M92.4,56.4c-0.4-0.1-0.5-0.4-0.3-0.7s0.5-0.2,0.7,0.2C93,56.3,92.8,56.5,92.4,56.4z M94.4,58.3c-0.1,0.5-0.5,0.9-0.8,0.9
			c-0.3,0-0.4,0.1-0.3,0.3s0,0.4-0.2,0.6s-0.5-0.3-0.6-1s0.3-1.4,0.9-1.5S94.5,57.9,94.4,58.3z M96.3,61c-0.4,0-0.8-0.6-0.8-1.3
			s0.2-1.5,0.4-1.8c0.3-0.3,0.7-0.6,0.9-0.6s0.3,0.4,0.3,0.8s-0.1,1,0,1.3s0.4,0.7,0.6,1s0.2,0.5-0.1,0.6C97.3,61,96.7,61,96.3,61z
			 M101.5,62.4c-0.1,0.1-0.2,0.2-0.3,0.2s-0.1,0,0-0.1s0.2-0.2,0.3-0.2S101.6,62.3,101.5,62.4z M101,68.4c0.3,0.1,0.3,0.2,0.2,0.2
			c-0.1,0-0.4-0.1-0.5-0.2S100.7,68.3,101,68.4z M103.1,73.3c-0.3,0.4-0.6,0.6-0.7,0.5s0-0.4,0.1-0.6s0.4-0.4,0.7-0.5
			S103.4,72.9,103.1,73.3z M104.1,71.4c-0.1,0.2-0.5,0.3-0.8,0.3s-0.7-0.2-0.8-0.4s-0.5,0.1-0.8,0.6s-0.7,0.8-0.8,0.5
			c-0.1-0.2-0.5-0.3-0.8-0.2s-0.4,0-0.3-0.3c0.1-0.3,0.2-1.1,0.1-1.9s0-1.2,0.2-0.9s0.4,0.4,0.5,0.3c0.1-0.1,0.6,0,1.2,0.3
			c0.6,0.3,1.1,0.7,1.1,0.9s0.2,0.3,0.4,0.2s0.5-0.1,0.7,0S104.3,71.2,104.1,71.4z M104.2,64.8c-0.1-0.4,0-0.8,0.3-0.7
			c0.3,0,0.6,0.3,0.6,0.5c0.1,0.3-0.1,0.6-0.3,0.7C104.6,65.4,104.4,65.2,104.2,64.8z M105.7,73.8c-0.1,0.1-0.2,0-0.2-0.3
			c0-0.3,0-0.4,0.2-0.3S105.7,73.7,105.7,73.8z M106.2,71.4c0,0.1-0.2,0.2-0.3,0.1c-0.1-0.1-0.1-0.2,0.1-0.3
			C106.1,71.2,106.2,71.3,106.2,71.4z M113.1,56.4c0.2-0.1,0.4-0.2,0.5-0.2s0.4,0.1,0.6,0.2s0.3,0.3,0.2,0.6s-0.3,0.3-0.3,0.2
			c-0.1-0.1-0.2-0.2-0.4-0.1c-0.1,0.1-0.4,0.1-0.5-0.1c-0.1-0.1-0.3-0.3-0.4-0.4C112.8,56.6,112.9,56.5,113.1,56.4z M101.5,57.9
			c0.3,0,0.6,0.2,0.5,0.5c-0.1,0.3,0.1,0.4,0.4,0.2c0.3-0.2,0.4-0.2,0.3,0c-0.1,0.2-0.1,0.3,0,0.3c0.1,0,0.2,0.1,0.2,0.3
			s0.1,0.1,0.2-0.2s0.3-0.3,0.4,0s0.3,0.3,0.3,0c0.1-0.3,0.3-0.5,0.5-0.4s0.4,0.4,0.4,0.7c0,0.3,0.1,0.3,0.2,0
			c0.1-0.3,0.2-0.2,0.2,0.1s0,0.5,0.1,0.4c0.1-0.1,0.2,0,0.2,0.2c0,0.2,0.1,0,0.2-0.4c0.1-0.4,0.1-0.6,0.1-0.4s0,0.2,0.1,0.1
			c0.1-0.2,0.3-0.3,0.5-0.3s0.3,0.3,0.2,0.6c-0.1,0.3-0.1,0.4,0,0.3c0.1-0.1,0.3-0.2,0.3-0.1s0,0,0.1-0.2c0.1-0.2,0.2-0.2,0.4-0.2
			c0.2,0.1,0.3,0.2,0.4,0.2c0,0,0.1,0.1,0.2,0.2c0.1,0.1-0.2,0.3-0.5,0.6c-0.3,0.2-0.3,0.3,0.1,0.2s0.8-0.2,1-0.1s0,0.2-0.4,0.3
			c-0.4,0.1-0.5,0.1-0.4,0.1s0.2,0.1,0.2,0.3s-0.1,0.2,0,0s0.3-0.1,0.4,0s0.1,0.3-0.2,0.4s0,0.1,0.4,0.1s0.7,0.1,0.6,0.2
			s-0.2,0.2,0,0.1s0.3-0.1,0.4,0.1s0.2,0.1,0.3,0.1s0.1,0,0.2,0.1s0.2,0.1,0.2,0s0.1-0.1,0.2,0c0.1,0.2,0.1,0.2,0.1,0
			c-0.1-0.1,0-0.2,0.2,0c0.1,0.1,0.3,0.2,0.3,0.2s0-0.1,0.1-0.3c0.1-0.1,0.3-0.1,0.5,0s0.3,0.3,0.2,0.3s-0.1,0.1,0.1,0.1
			c0.1,0,0.2,0.1,0.2,0.2c-0.1,0.1,0,0.1,0.1-0.1s0.2-0.2,0.3-0.1c0,0.1,0.1,0.1,0.1-0.1s0-0.2,0,0.1s0.1,0.3,0.3,0.2s0.3-0.2,0.4,0
			s0.2,0,0.2-0.2s0.2-0.3,0.4-0.2s0.3,0.2,0.2,0.3s-0.1,0.2,0.1,0.3s0.2,0.2,0,0.3s-0.2,0.2,0.1,0.3s0.3,0.1,0,0.2s-0.2,0.2,0,0.4
			s0.2,0.3,0,0.2s-0.2,0.2,0,0.6c0.3,0.4,0,0.5-0.5,0.4s-0.9-0.5-0.9-0.8c0-0.3,0-0.3-0.2-0.1s-0.3,0.3-0.3,0.1
			c-0.1-0.2-0.1-0.2-0.1-0.1s-0.2,0.1-0.4,0s-0.6-0.2-0.8-0.1s-0.1,0.3,0.2,0.5c0.3,0.2,0.3,0.4,0.1,0.4s-0.3,0.3-0.1,0.5
			c0.2,0.2,0.4,0.3,0.5,0.2s0.4,0,0.7,0.3s0.5,0.5,0.5,0.3c-0.1-0.1,0-0.1,0.2,0c0.1,0.1,0.3,0.1,0.4,0c0.1-0.1,0.3-0.2,0.5-0.1
			s0.3,0.3,0.2,0.4s0.1,0.2,0.3,0.3c0.3,0.1,0.6,0.3,0.8,0.6s0.1,0.4-0.2,0.2c-0.3-0.1-0.2,0.1,0.2,0.5s0,0.6-0.8,0.4
			s-1.3-0.2-1.1-0.1c0.1,0.1,0,0.2-0.3,0.2s0.2,0.3,1.1,0.7s0.6,0.8-0.6,0.8s-2.4-0.1-2.6-0.2s-0.1-0.3,0-0.4s0-0.2-0.3-0.2
			s-0.8-0.2-1-0.5s-0.4-0.4-0.4-0.3s-0.2,0.1-0.5,0c-0.3-0.2-0.4-0.1-0.3,0.1s-0.3,0.5-1,0.7c-0.7,0.2-1.2,0-1.3-0.5
			s0.2-0.8,0.5-0.8s0.9-0.2,1.2-0.4c0.3-0.2,0.4-0.6,0.1-0.8s-0.4-0.6-0.3-0.9s0.4-0.6,0.5-0.6s0.2-0.1,0-0.1s-0.3-0.2-0.3-0.4
			c0-0.3-0.3-0.8-0.8-1.2s-0.9-0.7-1-0.6c-0.1,0.1-0.3,0-0.6-0.1s-0.6-0.1-0.7,0.1s-0.2,0.1-0.1-0.2c0.1-0.3,0-0.6-0.2-0.7
			s-0.4-0.2-0.6-0.1c-0.1,0.1-0.3,0-0.3-0.2s-0.1-0.2-0.1,0s-0.1,0.1-0.3,0.1s-0.4-0.3-0.6-0.6s-0.5-0.3-0.5-0.2
			c-0.1,0.1,0,0.4,0.2,0.5s0.3,0.2,0.4,0.3c0.1,0-0.1,0.1-0.3,0.1s-0.6,0.1-0.8,0.1c-0.3,0-0.4,0-0.4,0c0.1,0,0.2,0.1,0.3,0.3
			s0.1,0.1-0.1,0.1s-0.5-0.2-0.7-0.3s-0.3-0.1-0.1,0c0.2,0.1,0.4,0.2,0.5,0.2s-0.3,0.1-0.9,0.2c-0.6,0.1-1.1,0.2-1.1,0.2
			c-0.1,0-0.2-0.2-0.3-0.4s-0.4-0.2-0.6-0.1s-0.5,0.2-0.7,0.1c-0.2-0.1-0.4-0.3-0.6-0.5c-0.1-0.2,0.3-0.5,0.9-0.6s1.2-0.2,1.2-0.1
			c0.1,0.1,0.1-0.1,0.1-0.4c0-0.3-0.3-0.6-0.5-0.7s-0.4-0.3-0.3-0.4s0.3-0.1,0.5-0.1c0.2,0.1,0.1-0.1-0.3-0.4s-0.4-0.6-0.1-0.5
			c0.3,0,0.3,0,0.1-0.1s-0.2-0.2,0-0.2s0.2-0.1,0-0.2s-0.1-0.3,0.3-0.6c0.4-0.2,0.9-0.2,1.2,0.2s0.5,0.9,0.6,1.2s0.1,0.5,0.2,0.3
			c0.1-0.2,0.1-0.4,0.1-0.5s0.3,0.1,0.7,0.3s0.5,0.3,0.3,0.1s-0.2-0.3,0.1-0.3c0.3,0,0.3-0.1,0-0.2c-0.3-0.1-0.4-0.2-0.3-0.4
			S101.2,57.9,101.5,57.9z M105.7,64.1c-0.2,0-0.3,0-0.2-0.1s0.3-0.1,0.4,0S105.9,64.1,105.7,64.1z M99.1,56.9c0.1,0,0.4,0,0.8,0
			s0.9,0.2,1.1,0.4s0.2,0.5-0.2,0.6s-0.8,0.2-0.9,0.2s-0.2-0.1-0.3-0.1c0,0-0.2-0.2-0.4-0.5C99.1,57.2,99,57,99.1,56.9z M98.5,55.2
			c0.1,0,0.2,0,0.3,0s0.1,0.1,0.1,0.2c-0.1,0.1-0.2,0.3-0.4,0.4s-0.5,0.2-0.7,0.1s-0.4-0.1-0.4,0.1s-0.3,0.4-0.8,0.5
			c-0.5,0.1-1,0.1-1.1-0.1s-0.3-0.2-0.5,0c-0.1,0.2-0.5,0.2-0.8,0.1c-0.3-0.1-0.7-0.7-0.8-1.2s-0.5-0.9-0.8-0.8
			c-0.3,0.1-0.6-0.1-0.8-0.4c-0.2-0.3-0.1-0.5,0.3-0.5s0.6,0.2,0.7,0.4c0.1,0.2,0.3,0.3,0.6,0.2c0.3-0.1,0.4-0.2,0.4-0.1
			c-0.1,0.1,0.1,0.1,0.4,0.2c0.3,0.1,0.3,0.1,0,0.2c-0.3,0-0.3,0.1-0.2,0.2c0.2,0.1,0.2,0.2,0.2,0.3s-0.1,0.1,0.1,0.1s0.3,0,0.5,0.2
			c0.1,0.2,0.3,0.3,0.3,0.2s0.2-0.1,0.5-0.1s0.9-0.1,1.4-0.3c0.5-0.3,1-0.4,1.2-0.4s0.4,0.1,0.5,0.1c0.1,0,0.1,0.1,0.1,0.2
			s0,0.3,0,0.4C98.4,55.1,98.5,55.2,98.5,55.2z M92.1,52.7c-0.3,0-0.3-0.1-0.1-0.2s0.5-0.1,0.5,0.1C92.5,52.6,92.3,52.7,92.1,52.7z
			 M93.5,52.7c-0.1-0.1-0.1-0.2,0-0.2s0.2,0.1,0.2,0.2S93.6,52.8,93.5,52.7z M92.6,46.7c0.2-0.2,0.6-0.3,0.8-0.3s0.3,0,0.1,0
			c-0.2-0.1-0.3-0.2-0.2-0.4c0.1-0.1,0.4-0.1,0.7-0.1s0.5,0,0.3-0.2s-0.3-0.4-0.2-0.5c0.1-0.1,0.3-0.3,0.4-0.4s0.7-0.3,1.2-0.4
			s1-0.1,0.9,0s0.1,0.1,0.3-0.1s0.6-0.2,0.8-0.2s0.4,0.3,0.5,0.4s0,0.4-0.1,0.6c-0.1,0.2-0.3,0.4-0.5,0.5s-0.2,0.1,0,0.1
			s0.3,0.2,0.2,0.4c-0.1,0.2,0,0.2,0.3,0s0.4,0,0.3,0.4c-0.1,0.5-0.2,0.8-0.3,0.8s-0.1,0,0,0.1s0.1,0.2,0,0.3s-0.1,0.1,0,0.1
			s0.3,0.1,0.3,0.3c0,0.1-0.1,0.3-0.4,0.3s-0.3,0.1-0.2,0.2s0,0.3-0.4,0.5s-0.3,0.3,0,0.4s0.3,0.1,0,0.2s-0.3,0.2,0.1,0.3
			c0.4,0.1,0.6,0.2,0.5,0.3s-0.1,0.2,0,0.2c0.2,0,0.2,0.1,0,0.2s-0.1,0.2,0,0.3s0.1,0.2-0.1,0.2s-0.3,0.3-0.3,0.5
			c0.1,0.2,0,0.4-0.2,0.4c-0.1,0-0.4,0-0.7-0.1s-0.3,0.1-0.3,0.3s0.3,0.3,0.5,0.3s0.5-0.1,0.7-0.1c0.2,0,0.4,0.2,0.5,0.4
			c0.1,0.2,0,0.5-0.2,0.6c-0.1,0.1-0.3,0.3-0.4,0.3c-0.1,0.1-0.4-0.1-0.6-0.3c-0.3-0.2-0.4-0.2-0.3-0.1s0,0.2-0.1,0
			c-0.1-0.1-0.2-0.1-0.2,0c0.1,0.1,0,0.2-0.2,0.1s-0.3,0-0.4,0.2c-0.1,0.1-0.2,0.2-0.4,0.1c-0.2-0.1-0.3-0.1-0.3,0.1
			c0,0.1,0,0.1-0.2,0s-0.2-0.1-0.2,0c0,0.1-0.1,0.1-0.2-0.1c-0.1-0.1-0.2-0.1-0.2,0c0,0.1-0.1,0.2-0.2,0.2c-0.1-0.1,0-0.3,0.2-0.6
			c0.3-0.3,0.3-0.7,0.1-0.9s0-0.3,0.4-0.2s0.8,0,0.9-0.3s0.1-0.4-0.1-0.2c-0.2,0.2-0.4,0.1-0.5-0.3s-0.2-0.5-0.2-0.4
			s-0.1,0.2-0.2,0.2s-0.3-0.1-0.4,0s-0.2,0-0.2-0.2s0.1-0.5,0.3-0.6c0.1-0.1,0.5-0.1,0.7,0c0.3,0.1,0.4,0.1,0.3,0s-0.1-0.2,0-0.4
			s0.1-0.2-0.1-0.2s-0.6-0.3-1-0.7s-0.5-0.7-0.3-0.7s0.7,0.1,1,0.3s0.3,0.1,0-0.1c-0.3-0.2-0.4-0.5-0.2-0.7c0.2-0.1,0.5-0.4,0.7-0.5
			s0.2-0.2,0.1-0.2c-0.2,0-0.3-0.1-0.2-0.4c0.1-0.2,0-0.2-0.1,0s-0.2,0.5-0.3,0.6c0,0.1-0.2,0.2-0.3,0.3c-0.1,0.1-0.2,0.1-0.2,0
			c0.1-0.1,0-0.2-0.1-0.2s-0.3,0.1-0.5,0.3c-0.1,0.1-0.3,0.2-0.3,0.1s0.1-0.3,0.3-0.5s0.1-0.1-0.2,0.2c-0.3,0.3-0.7,0.4-0.8,0.3
			s-0.1-0.3,0.2-0.5c0.3-0.2,0.3-0.2-0.1-0.1s-0.5,0.1-0.4-0.1s0.1-0.3-0.1-0.2c-0.2,0.1-0.3,0.1-0.3-0.1s-0.1-0.2-0.3-0.2
			S92.3,46.9,92.6,46.7z M91.2,49.3c0-0.1,0.1-0.1,0.3,0c0.2,0.1,0.2,0,0-0.2c-0.2-0.1-0.1-0.3,0.1-0.4c0.2-0.1,0.3-0.2,0.1-0.3
			s-0.2-0.4-0.1-0.6s0.6,0,1,0.4s0.9,0.7,0.9,0.5c0-0.1,0.1,0,0.3,0.3s0.3,0.5,0.4,0.5s0.3,0,0.4,0.1s0.1,0.4-0.1,0.7
			s-0.4,0.4-0.5,0.3C94,50.5,94,50.7,94,51s-0.1,0.5-0.2,0.3s-0.2-0.1-0.1,0.1s-0.1,0.3-0.3,0.3c-0.3,0-0.5-0.1-0.6-0.2
			s-0.1-0.2,0.1-0.3s0-0.2-0.3-0.4c-0.3-0.1-0.2-0.4,0.1-0.5s0.2-0.2-0.2-0.2s-0.7-0.1-0.6-0.3c0.1-0.2-0.1-0.4-0.3-0.4
			C91.4,49.5,91.2,49.4,91.2,49.3z M91.4,51.2c0.3,0.1,0.5,0.4,0.4,0.6c-0.1,0.2-0.3,0.3-0.5,0.3C91.2,52,91,51.8,91,51.5
			C90.9,51.2,91.1,51.1,91.4,51.2z M91.1,54.7c0.2,0.5,0.2,1,0.2,1.2s-0.3,0.3-0.6,0.3s-0.5-0.1-0.6-0.2s-0.1-0.3,0-0.4
			s0.2-0.2,0.2-0.3s0-0.1,0-0.1s-0.3,0-0.6,0.1s-0.4,0-0.2,0s0.3-0.3,0.2-0.6s0-0.3,0.2-0.1s0.3,0.2,0.2,0s-0.1-0.4,0-0.4
			s0.3,0.1,0.4,0.1c0.1,0,0.2,0,0.3-0.2C90.8,53.9,90.9,54.3,91.1,54.7z M89.4,50.6c0.4,0.2,0.8,0.4,0.8,0.5c0,0.1,0.1,0.4,0.2,0.6
			c0.1,0.3,0.1,0.4,0,0.4c-0.1-0.1-0.4-0.2-0.6-0.4c-0.3-0.1-0.6-0.2-0.7-0.2s-0.2,0-0.1-0.2S89.1,51,89,51c-0.1,0-0.3-0.2-0.3-0.4
			S89,50.4,89.4,50.6z M88,58.5c-0.1,0.2-0.3,0.3-0.6,0.1s-0.4-0.4-0.3-0.5c0.1-0.1,0.3-0.1,0.6-0.1C88,58.1,88.1,58.3,88,58.5z
			 M86.4,51.1c0.2-0.1,0.5-0.2,0.6-0.1s-0.1,0.2-0.4,0.3S86.2,51.2,86.4,51.1z M85.8,52c0-0.1,0.3-0.2,0.6-0.2s0.4,0.2,0.3,0.4
			s-0.4,0.2-0.6,0.2S85.7,52.2,85.8,52z M86.2,55.3c0.3,0,0.4-0.2,0.3-0.6s0-0.8,0.2-0.9c0.2-0.2,0.3,0,0.4,0.4
			c0,0.4,0.1,0.8,0.3,0.9s0.3,0,0.3-0.2c0.1-0.2,0.2-0.2,0.3-0.2s0.1,0.4,0.1,0.7S87.5,56,87.2,56s-1,0.1-1.5,0.3
			c-0.5,0.2-1,0.2-1.2,0.1s0-0.4,0.4-0.5s0.5-0.2,0.2-0.2s-0.6-0.1-0.6-0.3s-0.1-0.2-0.4,0s-0.6,0.2-0.8,0.1s-0.1-0.4,0.3-0.5
			s0.4-0.2,0.2-0.2s-0.2-0.1,0.1-0.2s0.4-0.2,0.2-0.2s-0.2-0.1,0.1-0.2c0.3-0.1,0.4-0.2,0.3-0.2s-0.1-0.2,0-0.3s0.4,0.2,0.7,0.7
			C85.5,54.8,85.9,55.2,86.2,55.3z M82.8,54.4c-0.1,0-0.1-0.1,0.2-0.3c0.3-0.1,0.4-0.1,0.3,0S83,54.4,82.8,54.4z M82.3,53.1
			c0.4-0.3,0.9-0.6,1-0.7s0.4-0.2,0.6-0.2s0.5,0.1,0.7,0.2s0,0.4-0.3,0.7s-0.6,0.4-0.6,0.2s-0.3-0.1-0.6,0.2S82.6,54,82.5,54
			c0,0-0.1-0.2-0.1-0.3s-0.2-0.2-0.5-0.2S81.9,53.4,82.3,53.1z M79.7,56c0-0.3,0.3-0.4,0.7-0.4s0.8,0.2,0.9,0.4s0.3,0.4,0.4,0.5
			s0.3,0.2,0.5,0.1s0.5,0.2,0.7,0.5s-0.3,0.9-1.1,1.3c-0.8,0.4-1.5,0.8-1.6,0.8c-0.1,0-0.2,0.2-0.3,0.4S79.4,59.9,79,60
			s-0.8-0.2-0.8-0.6c-0.1-0.4-0.2-0.8-0.4-0.8s0.2-0.6,0.8-1.1C79.3,56.9,79.7,56.2,79.7,56z"/>
	</g>
	<g>
		<path fill="#F1CD42" d="M101,149c-0.9-0.5-2.5-0.8-3.5-0.6s-3,0-4.5-0.4s-3.1-1-3.5-1.1c-0.5-0.1-1.1-0.5-1.5-0.8
			c-0.4-0.3-1.2-0.7-1.9-0.8s-1.9-0.9-2.7-1.7s-1.6-1.5-1.7-1.7s0-0.4,0.2-0.4s0.3-0.2,0.2-0.3s-0.1-0.4,0-0.6c0.1-0.3,0-1-0.3-1.6
			s-1.2-1.8-2-2.6c-0.8-0.8-1.5-1.6-1.5-1.8s-0.4-0.6-0.9-0.9s-0.8-0.8-0.7-1s-0.2-0.8-0.7-1.4c-0.5-0.5-0.9-1.1-0.9-1.4
			s-0.1-0.5-0.4-0.5s-0.7-0.5-1.1-1c-0.4-0.5-0.7-1-0.7-1.1s0,0,0,0.2s-0.1,0.3-0.2,0.1s-0.1-0.3,0-0.4s0.2-0.2,0.2-0.2
			s-0.1-0.3-0.2-0.6s-0.3-1.1-0.4-1.7c-0.1-0.6-0.8-1.4-1.4-1.8s-1.1,0-1.1,0.8c0,0.8,0.5,2.2,1.1,3c0.6,0.8,1.1,1.7,1.1,2
			s0.4,1,0.8,1.6s1,1.9,1.2,2.9s0.7,1.9,1,2.1s0.7,0.6,0.8,1s0,0.7-0.2,0.8s-0.5-0.1-0.6-0.4s-0.8-1-1.5-1.7
			c-0.7-0.6-1.2-1.6-1.2-2.1c0-0.5-0.2-1.3-0.6-1.8s-0.8-0.7-0.9-0.6s-0.7-0.3-1.2-0.8s-0.6-0.9-0.2-0.8s0.7,0.1,0.6-0.1
			s-0.1-0.4,0-0.6s-0.2-0.9-0.8-1.6s-1-1.3-1.1-1.5c-0.1-0.1-0.4-1.5-0.8-3c-0.4-1.5-0.9-3.1-1.2-3.5s-1-1-1.5-1.3
			c-0.5-0.3-1.1-0.6-1.3-0.7s-0.3-0.4-0.3-0.7s-0.2-1.3-0.6-2.4s-0.7-2.1-0.7-2.4s0.1-0.3,0.3-0.2c0.1,0.2,0.2,0.1,0.2-0.2
			s-0.2-0.5-0.5-0.6s-0.6-0.4-0.7-0.9c-0.1-0.5-0.3-1.4-0.3-2.2s0.1-1.7,0.4-2.1c0.2-0.4,0.4-1.2,0.5-1.9c0-0.6,0.5-2.3,1.1-3.7
			c0.6-1.4,1.2-2.5,1.4-2.5s0.1,0,0-0.1c-0.2-0.1-0.2-0.3,0-0.6c0.2-0.3,0.2-0.5,0.1-0.5s-0.2-0.6-0.1-1.2c0.1-0.7,0.5-1,1-0.8
			s0.8,0.7,0.5,1s-0.2,0.4,0,0.2s0.4-0.1,0.4,0.2s0.1,0,0.3-0.6c0.2-0.7,0.2-1.3,0.1-1.5c-0.1-0.2-0.2-0.5-0.1-0.8s0-0.5-0.3-0.5
			s-0.3,0-0.2-0.1c0.1-0.1,0.2-0.2,0.2-0.4S66,91.1,66,91s0-0.1-0.1,0c-0.1,0.1-0.2,0.2-0.3,0.3s-0.3,0-0.4-0.1s0-0.4,0.2-0.6
			c0.2-0.2,0.2-0.3,0-0.3s-0.4,0-0.4-0.1c0,0-0.1-0.1-0.2-0.2c-0.1-0.1-0.2-0.2-0.1-0.3s0.1-0.1,0,0s-0.3,0.1-0.4-0.1s0-0.3,0.3-0.4
			c0.3-0.1,0.3-0.1,0.1-0.1s-0.5,0-0.5,0s0-0.2,0.1-0.2c0.1,0-0.1-0.1-0.4-0.3s-0.4-0.3-0.2-0.3s0.2-0.1-0.1-0.2s-0.4-0.2-0.2-0.2
			c0.2,0,0.2-0.1,0.1-0.2c-0.2-0.1-0.1-0.2,0.1-0.3s0.2-0.1,0.1-0.1s-0.3,0-0.3-0.2s0.3-0.5,0.6-0.8c0.3-0.3,0.4-0.4,0.1-0.3
			c-0.3,0.1-0.5,0.1-0.5-0.1c0-0.1-0.1-0.2-0.2-0.2s-0.1,0,0.2-0.1c0.2-0.1,0.3-0.6,0.2-1c-0.1-0.5-0.1-0.7,0.1-0.6
			c0.2,0.1,0.2,0.1,0.1,0.1s-0.2-0.3-0.1-0.5c0.1-0.2-0.1-0.1-0.3,0.1c-0.3,0.2-0.5,0.1-0.6-0.2c-0.1-0.3,0-0.6,0.2-0.7
			s0.2-0.2,0-0.4s-0.3-0.4-0.2-0.5s0.3-0.3,0.5-0.3c0.2-0.1,0.3-0.2,0.3-0.3c-0.1-0.1,0-0.4,0.3-0.8c0.2-0.3,0.3-0.4,0.1-0.2
			c-0.2,0.2-0.5,0.6-0.8,0.7c-0.3,0.2-0.3,0-0.1-0.4c0.2-0.4,0.4-0.9,0.4-1s-0.1-0.3-0.3-0.2s-0.3,0.2-0.3,0.3s0.1,0.3,0.1,0.5
			c0,0.1-0.1,0.2-0.2,0.2s-0.2-0.1-0.1-0.2c0.1-0.1,0.1-0.2,0.1-0.1s-0.2,0.1-0.3,0s0-0.2,0.1-0.4c0.1-0.1,0.1-0.2-0.1-0.2
			c-0.2,0.1-0.1-0.1,0.2-0.3s0.3-0.8,0.1-1.4s-0.3-1.1-0.2-1.1s0.2-0.2,0.2-0.4c0-0.2,0-0.2,0.1,0c0.1,0.1,0.1,0.1,0-0.1
			c-0.1-0.2-0.1-0.3,0.1-0.3c0.1,0,0.1-0.1,0-0.3c-0.1-0.1-0.1-0.4,0-0.6c0.2-0.2,0.2-0.2,0-0.2s-0.3,0.1-0.4,0s0-0.6,0.1-1.1
			s0.1-0.5-0.2,0c-0.2,0.5-0.5,0.8-0.7,0.7s-0.2-0.5-0.1-0.8s0.1-0.4,0-0.3s-0.2,0-0.3-0.2c-0.1-0.2-0.1-0.1-0.1,0.3
			s-0.1,0.7-0.2,0.7s-0.5-0.7-0.7-1.5s-0.3-1.6-0.2-1.7c0.2-0.1,0.2-0.1,0.2,0.1s0,0.3,0.1,0.2s0.2-0.2,0.2-0.4s-0.2-0.2-0.4-0.2
			s-0.3,0.1-0.4,0.1s-0.2-0.2-0.3-0.5s-0.5-0.7-1-1s-0.9-0.7-0.9-0.9s-0.1-0.5-0.3-0.6c-0.2-0.1-0.2-0.3-0.2-0.4s0.1-0.2-0.1-0.3
			c-0.1,0-0.1,0,0,0c0.1,0,0.1-0.1,0.1-0.2s0-0.2,0.1-0.3s0.1-0.1-0.2-0.1c-0.2,0-0.4-0.1-0.3-0.2s0-0.2-0.2-0.1
			c-0.1,0.1-0.1,0,0-0.2c0.1-0.1,0-0.2-0.3-0.2s-0.5,0.3-0.5,0.5s-0.2,0.5-0.4,0.6c-0.2,0.1-0.5,0-0.6-0.2c-0.1-0.2-0.3-0.2-0.4,0
			c-0.1,0.1-0.2,0.2-0.2,0s0-0.1-0.1,0c-0.1,0.1-0.5,0.1-0.9,0.1s-0.5-0.3-0.3-0.4s0.4-0.3,0.3-0.4s0-0.4,0.4-0.7s0.9-0.4,1.1-0.4
			c0.2,0,0.5,0.2,0.7,0.5s0.2,0.2,0.2,0s0.1-0.5,0.3-0.5c0.2,0,0.2-0.1,0-0.2c-0.2-0.1-1.3,0-2.4,0.2s-2.1,0.5-2.2,0.6
			c-0.1,0.1-0.1,0.4-0.1,0.5c0.1,0.2-0.1,0.4-0.5,0.5c-0.3,0.1-0.9,0.1-1.2,0.1s-2.8,3.8-5.5,8.5L6.2,141.3c-2.8,4.8-0.5,8.7,5,8.7
			h81.5C98.2,150,101.9,149.6,101,149z M50.5,68.8c-0.1,0.1-0.3,0.2-0.4,0.1s-0.1-0.1-0.1,0s-0.3,0.2-0.7,0.2S48.8,69,49,68.9
			c0.1-0.1,0.2-0.2,0.1-0.2s-0.2-0.2-0.2-0.4s0.1-0.4,0.2-0.5s0.2,0.1,0.3,0.3c0,0.2,0.2,0.2,0.4,0C49.9,68,50,67.9,50,68
			s0.1,0.1,0.2,0c0.1-0.1,0.3,0,0.4,0.2C50.7,68.4,50.7,68.7,50.5,68.8z M51.1,68.1c-0.2,0-0.3-0.1-0.2-0.3c0.1-0.1,0.3-0.1,0.4,0
			C51.4,68,51.3,68.1,51.1,68.1z M61.7,81c-0.1,0.2-0.2,0.3-0.3,0.1s-0.1-0.5-0.3-0.6s-0.1-0.4,0-0.5s0.2-0.3,0.1-0.3
			s-0.1-0.4,0-0.7s0.3-0.2,0.5,0.4c0.1,0.5,0.1,0.9,0,0.9s-0.2,0,0,0.2S61.8,80.7,61.7,81z M61.2,78.3c-0.1,0.3-0.1,0.1,0-0.3
			s0.3-0.6,0.3-0.5S61.3,78,61.2,78.3z M62.9,84.9c0.1-0.3,0.1-0.1,0.1,0.3s0,0.6,0,0.4s0-0.3-0.1-0.3S62.8,85.1,62.9,84.9z
			 M63.3,89.3c0.7,0.5,1.3,1,1.4,1.1c0.1,0.2,0.3,1,0.6,1.8s0.1,1.2-0.4,1s-0.7-0.6-0.6-0.8c0.1-0.2,0-0.3-0.2-0.3
			c-0.3,0-0.6-0.4-0.8-0.9c-0.2-0.5-0.3-1-0.4-1.1s-0.2-0.2-0.4-0.3s-0.2-0.3,0-0.4s0.2-0.3,0-0.3s-0.4-0.1-0.4-0.3
			S62.6,88.8,63.3,89.3z M62,77.6c0.2,0.1,0.2,0.4,0.1,0.6c-0.1,0.2-0.3,0.3-0.4,0.2s-0.2-0.3-0.1-0.6S61.9,77.4,62,77.6z
			 M61.7,76.1c0.2-0.6,0.5-0.9,0.6-0.7c0.1,0.2,0.1,0.6-0.1,0.9c-0.1,0.3-0.4,0.6-0.6,0.7S61.5,76.6,61.7,76.1z M60.8,75.5
			c0.1-0.4,0.3-0.5,0.6-0.3s0.3,0.4,0.3,0.5s-0.3,0-0.4-0.2s-0.1-0.1,0,0.2s0.1,0.4-0.1,0.2s-0.3-0.1-0.4,0
			C60.8,76,60.8,75.9,60.8,75.5z M60.3,84.5c-0.2-0.5-0.2-1.3-0.2-1.8c0.1-0.5,0.3-0.8,0.5-0.6s0.2,0.4,0.1,0.5s0,0.1,0.3,0
			s0.3,0-0.1,0.3c-0.3,0.3-0.5,0.7-0.4,0.8c0.1,0.1,0.1,0.3,0,0.3c-0.1,0.1-0.2,0.4-0.1,0.8S60.4,85,60.3,84.5z"/>
	</g>
	<g>
		<path fill="#F1CD42" d="M111.7,42.2c0.2,0,0.2-0.3,0.1-0.6c-0.2-0.3-0.3-0.5-0.3-0.4s0,0.4-0.1,0.6S111.5,42.2,111.7,42.2z"/>
	</g>
	<g>
		<path fill="#F1CD42" d="M129.4,93.7c0.1-0.2,0-0.3-0.3-0.2s-0.4,0.3-0.2,0.4S129.2,93.9,129.4,93.7z"/>
	</g>
</g>
</svg>
